<?xml version="1.0" encoding="UTF-8"?>
<svg id="Calque_1" data-name="Calque 1" xmlns="http://www.w3.org/2000/svg" xmlns:xlink="http://www.w3.org/1999/xlink" viewBox="0 0 247.32 296.06">
  <defs>
    <style>
      .cls-1 {
        fill: url(#Dégradé_sans_nom_5);
      }
    </style>
    <linearGradient id="Dégradé_sans_nom_5" data-name="Dégradé sans nom 5" x1="-.45" y1="148.03" x2="251.46" y2="148.03" gradientUnits="userSpaceOnUse">
      <stop offset="0" stop-color="#99ffcd"/>
      <stop offset="1" stop-color="#0166ff"/>
    </linearGradient>
  </defs>
  <path class="cls-1" d="M125.51,294.77l23.57-.74,23.57-.69-.25.02c3.45-.75,6.61-2.52,8.89-5.08,2.29-2.55,3.66-5.84,3.99-9.24.08-.82.12-1.79.15-2.7.03-.92.04-1.84.04-2.77,0-1.85-.06-3.72-.14-5.58-.16-3.74-.44-7.51-.65-11.32-.21-3.81-.37-7.66-.28-11.57.1-3.91.45-7.89,1.39-11.85.91-3.96,2.45-7.79,4.39-11.35,1.95-3.56,4.31-6.81,6.8-9.86,5.01-6.07,10.51-11.33,15.17-16.93,1.17-1.4,2.29-2.81,3.34-4.26,1.04-1.42,2.04-3,3.05-4.51.99-1.54,1.93-3.11,2.87-4.68.88-1.6,1.83-3.16,2.64-4.8l1.25-2.43,1.16-2.48c.8-1.64,1.46-3.34,2.18-5.01,1.32-3.39,2.58-6.8,3.57-10.29,2.09-6.95,3.37-14.11,4.01-21.3,1.21-14.4-.59-28.97-5.03-42.65-4.44-13.68-11.54-26.47-20.74-37.45-9.17-11-20.42-20.2-32.97-26.89-12.54-6.71-26.37-10.84-40.48-12.31-7.06-.69-14.19-.75-21.28-.18-7.05.61-14.02,1.83-20.76,3.79-13.51,3.85-26.15,10.53-36.95,19.46-10.82,8.92-19.81,20.04-26.48,32.4-6.67,12.36-11,26-12.64,39.9-1.64,13.9-.61,28.08,3.15,41.48.94,3.35,2.03,6.66,3.31,9.89.6,1.63,1.33,3.21,2.01,4.82.76,1.57,1.45,3.17,2.28,4.7,1.56,3.11,3.34,6.11,5.2,9.06.96,1.46,1.91,2.92,2.94,4.33,1.03,1.48,1.97,2.72,3.04,4.02,2.11,2.58,4.53,5.13,7.11,7.76,2.58,2.63,5.35,5.36,8.11,8.38,2.76,3.02,5.54,6.35,7.99,10.12,2.46,3.77,4.54,7.99,5.99,12.42.35,1.11.68,2.22.97,3.38.28,1.14.52,2.27.72,3.39.4,2.24.65,4.42.82,6.56.33,4.27.33,8.35.25,12.29-.08,3.94-.26,7.74-.36,11.41-.1,3.66-.12,7.19.1,10.44l-12.74-8.25,54.85-20.17-5.82,11.51-9.28-32.36-9.2-32.38-9.18-32.39-9.1-32.41-.04-.15c-1.32-4.71,1.42-9.59,6.13-10.91,2.24-.63,4.55-.33,6.46.66l18.56,9.61,18.52,9.68-11.87,5.4,6.83-25.46,6.93-25.44.07-.25c1.1-4.02,5.25-6.4,9.27-5.3,2.87.78,4.9,3.12,5.43,5.86,1.73,8.99,3.45,17.98,5.13,26.97l5.06,26.99-10.18-3.83,22.28-15.77,22.35-15.69.23-.16c2.16-1.52,5.14-.99,6.65,1.17.82,1.17,1.04,2.6.73,3.89l-8.62,34.96-8.75,34.93-8.89,34.9-4.54,17.43-2.27,8.71-2.32,8.7,1.52-8.88,1.56-8.87,3.13-17.74,6.45-35.43,6.59-35.4,6.73-35.37,7.61,4.89-21.31,17.07-21.37,16.98c-2.74,2.18-6.72,1.72-8.9-1.02-.6-.75-1-1.6-1.2-2.47l-.08-.34-6.23-26.74c-2.09-8.91-4.13-17.83-6.17-26.75l14.77.31-6.08,25.65-6.17,25.63c-1.07,4.44-5.54,7.18-9.98,6.11-.58-.14-1.13-.34-1.64-.58l-.25-.12-18.8-9.14-18.76-9.21,12.55-10.4,9.56,32.28,9.48,32.3,9.46,32.31,9.38,32.33c1.39,4.79-1.18,9.78-5.78,11.49l-.05.02-54.84,20.21h-.02c-4.9,1.82-10.35-.69-12.15-5.6-.32-.86-.5-1.78-.56-2.65-.29-4.31-.23-8.37-.12-12.28.11-3.91.29-7.67.38-11.3.17-7.25-.03-14.07-1.79-19.37-.91-2.77-2.18-5.41-3.85-7.99-1.67-2.58-3.74-5.12-6.08-7.69-4.67-5.14-10.47-10.44-15.82-17.03-1.33-1.64-2.65-3.42-3.78-5.06-1.19-1.66-2.3-3.38-3.4-5.09-2.16-3.47-4.23-7-6.04-10.68-.95-1.81-1.77-3.69-2.64-5.54-.79-1.89-1.63-3.76-2.33-5.68-1.49-3.82-2.74-7.72-3.82-11.67-2.16-7.9-3.51-16.01-4.06-24.16-.55-8.15-.26-16.35.79-24.43,2.1-16.16,7.28-31.86,15.16-46.07,7.86-14.22,18.48-26.93,31.21-37.09,12.71-10.17,27.55-17.71,43.25-21.91,7.84-2.13,15.89-3.36,23.95-3.89,8.02-.48,16.1-.25,24.1.7,15.98,1.99,31.64,7,45.62,14.97,14,7.92,26.36,18.57,36.29,31.09,9.93,12.52,17.36,26.95,21.84,42.22,4.49,15.26,5.92,31.42,4.06,47.17-1.87,15.75-6.96,31.05-14.79,44.65-.93,1.73-2.01,3.37-3.02,5.05-1.07,1.64-2.14,3.28-3.26,4.89-1.16,1.59-2.24,3.17-3.5,4.77-1.24,1.57-2.53,3.08-3.85,4.54-5.27,5.84-10.98,10.84-15.84,16.28-2.42,2.72-4.64,5.54-6.46,8.56-1.81,3.02-3.26,6.23-4.19,9.61-.97,3.37-1.46,6.96-1.73,10.61-.26,3.66-.28,7.38-.24,11.14.04,3.76.14,7.56.13,11.39,0,1.92-.04,3.84-.14,5.78-.05.97-.11,1.93-.19,2.9-.08.98-.17,1.91-.32,2.97-.61,4.11-2.5,8.07-5.44,11.02-2.91,2.97-6.8,4.86-10.8,5.49h-.08c-.06.02-.12.02-.17.02l-23.57-.62-23.57-.67Z"/>
</svg>