<?xml version="1.0" encoding="UTF-8"?>
<svg id="Calque_1" data-name="Calque 1" xmlns="http://www.w3.org/2000/svg" xmlns:xlink="http://www.w3.org/1999/xlink" viewBox="0 0 802.29 296.06">
  <defs>
    <style>
      .cls-1 {
        fill: #38589c;
      }

      .cls-2 {
        fill: #062e83;
      }

      .cls-3 {
        fill: url(#Dégradé_sans_nom_5);
      }
    </style>
    <linearGradient id="Dégradé_sans_nom_5" data-name="Dégradé sans nom 5" x1="-.45" y1="148.03" x2="251.46" y2="148.03" gradientUnits="userSpaceOnUse">
      <stop offset="0" stop-color="#99ffcd"/>
      <stop offset="1" stop-color="#0166ff"/>
    </linearGradient>
  </defs>
  <path class="cls-3" d="M125.51,294.77l23.57-.74,23.57-.69-.25.02c3.45-.75,6.61-2.52,8.89-5.08,2.29-2.55,3.66-5.84,3.99-9.24.08-.82.12-1.79.15-2.7.03-.92.04-1.84.04-2.77,0-1.85-.06-3.72-.14-5.58-.16-3.74-.44-7.51-.65-11.32-.21-3.81-.37-7.66-.28-11.57.1-3.91.45-7.89,1.39-11.85.91-3.96,2.45-7.79,4.39-11.35,1.95-3.56,4.31-6.81,6.8-9.86,5.01-6.07,10.51-11.33,15.17-16.93,1.17-1.4,2.29-2.81,3.34-4.26,1.04-1.42,2.04-3,3.05-4.51.99-1.54,1.93-3.11,2.87-4.68.88-1.6,1.83-3.16,2.64-4.8l1.25-2.43,1.16-2.48c.8-1.64,1.46-3.34,2.18-5.01,1.32-3.39,2.58-6.8,3.57-10.29,2.09-6.95,3.37-14.11,4.01-21.3,1.21-14.4-.59-28.97-5.03-42.65-4.44-13.68-11.54-26.47-20.74-37.45-9.17-11-20.42-20.2-32.97-26.89-12.54-6.71-26.37-10.84-40.48-12.31-7.06-.69-14.19-.75-21.28-.18-7.05.61-14.02,1.83-20.76,3.79-13.51,3.85-26.15,10.53-36.95,19.46-10.82,8.92-19.81,20.04-26.48,32.4-6.67,12.36-11,26-12.64,39.9-1.64,13.9-.61,28.08,3.15,41.48.94,3.35,2.03,6.66,3.31,9.89.6,1.63,1.33,3.21,2.01,4.82.76,1.57,1.45,3.17,2.28,4.7,1.56,3.11,3.34,6.11,5.2,9.06.96,1.46,1.91,2.92,2.94,4.33,1.03,1.48,1.97,2.72,3.04,4.02,2.11,2.58,4.53,5.13,7.11,7.76,2.58,2.63,5.35,5.36,8.11,8.38,2.76,3.02,5.54,6.35,7.99,10.12,2.46,3.77,4.54,7.99,5.99,12.42.35,1.11.68,2.22.97,3.38.28,1.14.52,2.27.72,3.39.4,2.24.65,4.42.82,6.56.33,4.27.33,8.35.25,12.29-.08,3.94-.26,7.74-.36,11.41-.1,3.66-.12,7.19.1,10.44l-12.74-8.25,54.85-20.17-5.82,11.51-9.28-32.36-9.2-32.38-9.18-32.39-9.1-32.41-.04-.15c-1.32-4.71,1.42-9.59,6.13-10.91,2.24-.63,4.55-.33,6.46.66l18.56,9.61,18.52,9.68-11.87,5.4,6.83-25.46,6.93-25.44.07-.25c1.1-4.02,5.25-6.4,9.27-5.3,2.87.78,4.9,3.12,5.43,5.86,1.73,8.99,3.45,17.98,5.13,26.97l5.06,26.99-10.18-3.83,22.28-15.77,22.35-15.69.23-.16c2.16-1.52,5.14-.99,6.65,1.17.82,1.17,1.04,2.6.73,3.89l-8.62,34.96-8.75,34.93-8.89,34.9-4.54,17.43-2.27,8.71-2.32,8.7,1.52-8.88,1.56-8.87,3.13-17.74,6.45-35.43,6.59-35.4,6.73-35.37,7.61,4.89-21.31,17.07-21.37,16.98c-2.74,2.18-6.72,1.72-8.9-1.02-.6-.75-1-1.6-1.2-2.47l-.08-.34-6.23-26.74c-2.09-8.91-4.13-17.83-6.17-26.75l14.77.31-6.08,25.65-6.17,25.63c-1.07,4.44-5.54,7.18-9.98,6.11-.58-.14-1.13-.34-1.64-.58l-.25-.12-18.8-9.14-18.76-9.21,12.55-10.4,9.56,32.28,9.48,32.3,9.46,32.31,9.38,32.33c1.39,4.79-1.18,9.78-5.78,11.49l-.05.02-54.84,20.21h-.02c-4.9,1.82-10.35-.69-12.15-5.6-.32-.86-.5-1.78-.56-2.65-.29-4.31-.23-8.37-.12-12.28.11-3.91.29-7.67.38-11.3.17-7.25-.03-14.07-1.79-19.37-.91-2.77-2.18-5.41-3.85-7.99-1.67-2.58-3.74-5.12-6.08-7.69-4.67-5.14-10.47-10.44-15.82-17.03-1.33-1.64-2.65-3.42-3.78-5.06-1.19-1.66-2.3-3.38-3.4-5.09-2.16-3.47-4.23-7-6.04-10.68-.95-1.81-1.77-3.69-2.64-5.54-.79-1.89-1.63-3.76-2.33-5.68-1.49-3.82-2.74-7.72-3.82-11.67-2.16-7.9-3.51-16.01-4.06-24.16-.55-8.15-.26-16.35.79-24.43,2.1-16.16,7.28-31.86,15.16-46.07,7.86-14.22,18.48-26.93,31.21-37.09,12.71-10.17,27.55-17.71,43.25-21.91,7.84-2.13,15.89-3.36,23.95-3.89,8.02-.48,16.1-.25,24.1.7,15.98,1.99,31.64,7,45.62,14.97,14,7.92,26.36,18.57,36.29,31.09,9.93,12.52,17.36,26.95,21.84,42.22,4.49,15.26,5.92,31.42,4.06,47.17-1.87,15.75-6.96,31.05-14.79,44.65-.93,1.73-2.01,3.37-3.02,5.05-1.07,1.64-2.14,3.28-3.26,4.89-1.16,1.59-2.24,3.17-3.5,4.77-1.24,1.57-2.53,3.08-3.85,4.54-5.27,5.84-10.98,10.84-15.84,16.28-2.42,2.72-4.64,5.54-6.46,8.56-1.81,3.02-3.26,6.23-4.19,9.61-.97,3.37-1.46,6.96-1.73,10.61-.26,3.66-.28,7.38-.24,11.14.04,3.76.14,7.56.13,11.39,0,1.92-.04,3.84-.14,5.78-.05.97-.11,1.93-.19,2.9-.08.98-.17,1.91-.32,2.97-.61,4.11-2.5,8.07-5.44,11.02-2.91,2.97-6.8,4.86-10.8,5.49h-.08c-.06.02-.12.02-.17.02l-23.57-.62-23.57-.67Z"/>
  <g>
    <path class="cls-2" d="M358.22,134.74c4.01,0,7.5-.36,10.47-1.09,2.97-.73,5.8-1.73,8.49-3.01v-17.37h-11.95c-1.14,0-2.05-.32-2.71-.96-.66-.64-.99-1.42-.99-2.34v-10.04h31.77v38.64c-2.42,1.76-4.94,3.29-7.56,4.59-2.62,1.3-5.42,2.37-8.39,3.2-2.97.84-6.15,1.46-9.54,1.88-3.39.42-7.05.63-10.96.63-6.96,0-13.36-1.21-19.22-3.63-5.86-2.42-10.92-5.79-15.19-10.11-4.27-4.31-7.61-9.47-10.01-15.45-2.4-5.99-3.6-12.53-3.6-19.62s1.17-13.76,3.5-19.75c2.33-5.99,5.65-11.14,9.94-15.45,4.29-4.31,9.5-7.66,15.62-10.04s12.99-3.57,20.61-3.57,14.54,1.16,20.24,3.47c5.7,2.31,10.53,5.32,14.5,9.01l-5.15,8.06c-1.01,1.63-2.36,2.44-4.03,2.44-1.06,0-2.14-.35-3.24-1.06-1.41-.84-2.85-1.67-4.33-2.51-1.47-.84-3.1-1.56-4.89-2.18-1.78-.62-3.79-1.12-6.01-1.52-2.23-.4-4.79-.59-7.7-.59-4.71,0-8.97.79-12.78,2.38-3.81,1.58-7.06,3.85-9.74,6.8-2.69,2.95-4.76,6.5-6.21,10.63-1.45,4.14-2.18,8.76-2.18,13.87,0,5.5.77,10.4,2.31,14.69,1.54,4.29,3.7,7.92,6.47,10.87,2.77,2.95,6.08,5.21,9.91,6.77s8.01,2.34,12.55,2.34Z"/>
    <path class="cls-2" d="M423.87,80.05v43.06c0,4.14.96,7.34,2.87,9.61,1.91,2.27,4.79,3.4,8.62,3.4,2.82,0,5.46-.63,7.92-1.88s4.8-2.98,7-5.18v-49.01h16.31v67.76h-9.97c-2.11,0-3.5-.99-4.16-2.97l-1.12-5.42c-1.41,1.41-2.86,2.7-4.36,3.86s-3.09,2.16-4.79,2.97c-1.7.81-3.52,1.45-5.48,1.91-1.96.46-4.06.69-6.31.69-3.7,0-6.97-.63-9.81-1.88s-5.23-3.03-7.17-5.32c-1.94-2.29-3.4-5.01-4.39-8.16-.99-3.15-1.49-6.61-1.49-10.4v-43.06h16.31Z"/>
    <path class="cls-2" d="M503.85,60.3c0,1.41-.29,2.73-.86,3.96-.57,1.23-1.33,2.31-2.28,3.24-.95.92-2.06,1.66-3.33,2.21-1.28.55-2.64.83-4.1.83s-2.74-.27-4-.83c-1.26-.55-2.34-1.29-3.27-2.21-.92-.93-1.66-2-2.21-3.24-.55-1.23-.83-2.55-.83-3.96s.27-2.82.83-4.1c.55-1.28,1.29-2.38,2.21-3.3s2.01-1.66,3.27-2.21c1.25-.55,2.58-.83,4-.83s2.82.28,4.1.83c1.28.55,2.39,1.29,3.33,2.21.95.92,1.71,2.03,2.28,3.3.57,1.28.86,2.64.86,4.1ZM501.41,80.05v67.76h-16.31v-67.76h16.31Z"/>
    <path class="cls-2" d="M519.84,147.81v-67.76h9.97c2.11,0,3.5.99,4.16,2.97l1.12,5.35c1.36-1.41,2.81-2.68,4.33-3.83,1.52-1.14,3.13-2.13,4.82-2.97,1.69-.84,3.51-1.47,5.45-1.92,1.94-.44,4.05-.66,6.34-.66,3.7,0,6.98.63,9.84,1.88s5.25,3.02,7.17,5.28c1.91,2.27,3.37,4.98,4.36,8.12.99,3.15,1.49,6.62,1.49,10.4v43.13h-16.31v-43.13c0-4.14-.96-7.34-2.87-9.61-1.91-2.27-4.79-3.4-8.62-3.4-2.82,0-5.46.64-7.92,1.91-2.47,1.28-4.8,3.02-7,5.22v49.01h-16.31Z"/>
    <path class="cls-2" d="M622.94,78.99c4.27,0,8.2.68,11.79,2.05,3.59,1.37,6.68,3.36,9.28,5.98,2.6,2.62,4.62,5.83,6.08,9.64,1.45,3.81,2.18,8.16,2.18,13.04,0,1.23-.06,2.26-.16,3.07-.11.81-.31,1.45-.59,1.91-.29.46-.67.79-1.16.99-.49.2-1.1.3-1.85.3h-41.87c.49,6.96,2.36,12.07,5.61,15.32,3.26,3.26,7.57,4.89,12.95,4.89,2.64,0,4.92-.31,6.84-.92,1.91-.62,3.59-1.3,5.02-2.05,1.43-.75,2.68-1.43,3.76-2.05,1.08-.62,2.12-.92,3.14-.92.66,0,1.23.13,1.72.4.48.26.9.64,1.26,1.12l4.75,5.94c-1.81,2.11-3.83,3.89-6.08,5.32-2.25,1.43-4.59,2.58-7.03,3.43-2.44.86-4.93,1.46-7.46,1.82-2.53.35-4.99.53-7.36.53-4.71,0-9.09-.78-13.14-2.34-4.05-1.56-7.57-3.87-10.57-6.94-3-3.06-5.35-6.85-7.07-11.36-1.72-4.51-2.58-9.74-2.58-15.69,0-4.62.75-8.97,2.25-13.04,1.5-4.07,3.64-7.62,6.44-10.63,2.8-3.02,6.21-5.41,10.24-7.17,4.03-1.76,8.57-2.64,13.64-2.64ZM623.27,90.68c-4.75,0-8.48,1.34-11.16,4.03-2.69,2.69-4.4,6.5-5.15,11.43h30.64c0-2.11-.29-4.11-.86-5.98-.57-1.87-1.45-3.51-2.64-4.92-1.19-1.41-2.69-2.52-4.49-3.34-1.81-.81-3.92-1.22-6.34-1.22ZM646.18,51.25l-16.31,17.24c-.84.88-1.64,1.49-2.41,1.82-.77.33-1.77.49-3,.49h-9.78l9.38-16.05c.66-1.14,1.43-2.01,2.31-2.61s2.2-.89,3.96-.89h15.85Z"/>
    <path class="cls-2" d="M693.54,78.99c4.27,0,8.2.68,11.79,2.05,3.59,1.37,6.68,3.36,9.28,5.98,2.6,2.62,4.62,5.83,6.08,9.64,1.45,3.81,2.18,8.16,2.18,13.04,0,1.23-.06,2.26-.16,3.07-.11.81-.31,1.45-.59,1.91-.29.46-.67.79-1.16.99-.49.2-1.1.3-1.85.3h-41.87c.49,6.96,2.36,12.07,5.61,15.32,3.26,3.26,7.57,4.89,12.95,4.89,2.64,0,4.92-.31,6.84-.92,1.91-.62,3.59-1.3,5.02-2.05,1.43-.75,2.68-1.43,3.76-2.05,1.08-.62,2.12-.92,3.14-.92.66,0,1.23.13,1.72.4.48.26.9.64,1.26,1.12l4.75,5.94c-1.81,2.11-3.83,3.89-6.08,5.32-2.25,1.43-4.59,2.58-7.03,3.43-2.44.86-4.93,1.46-7.46,1.82-2.53.35-4.99.53-7.36.53-4.71,0-9.09-.78-13.14-2.34-4.05-1.56-7.57-3.87-10.57-6.94-3-3.06-5.35-6.85-7.07-11.36-1.72-4.51-2.58-9.74-2.58-15.69,0-4.62.75-8.97,2.25-13.04,1.5-4.07,3.64-7.62,6.44-10.63,2.8-3.02,6.21-5.41,10.24-7.17,4.03-1.76,8.57-2.64,13.64-2.64ZM693.87,90.68c-4.75,0-8.48,1.34-11.16,4.03-2.69,2.69-4.4,6.5-5.15,11.43h30.64c0-2.11-.29-4.11-.86-5.98-.57-1.87-1.45-3.51-2.64-4.92-1.19-1.41-2.69-2.52-4.49-3.34-1.81-.81-3.92-1.22-6.34-1.22Z"/>
  </g>
  <g>
    <path class="cls-1" d="M323.37,176.13c0,.94-.19,1.82-.57,2.63-.38.81-.89,1.54-1.52,2.17-.63.63-1.36,1.13-2.2,1.49s-1.72.54-2.66.54-1.82-.18-2.63-.54-1.54-.86-2.17-1.49c-.63-.63-1.13-1.35-1.49-2.17-.36-.81-.54-1.69-.54-2.63s.18-1.83.54-2.68c.36-.85.86-1.59,1.49-2.22.63-.63,1.36-1.13,2.17-1.49s1.69-.54,2.63-.54,1.82.18,2.66.54,1.56.86,2.2,1.49c.63.63,1.14,1.37,1.52,2.22.38.85.57,1.74.57,2.68ZM321.2,193.37v54.91h-9.65v-54.91h9.65Z"/>
    <path class="cls-1" d="M338.22,248.28v-54.91h5.75c1.37,0,2.24.67,2.6,2l.76,5.96c2.39-2.64,5.05-4.77,8-6.4,2.94-1.63,6.35-2.44,10.22-2.44,3,0,5.65.5,7.94,1.49,2.29.99,4.21,2.4,5.75,4.23s2.7,4.02,3.5,6.59c.79,2.57,1.19,5.4,1.19,8.51v34.96h-9.65v-34.96c0-4.16-.95-7.38-2.85-9.68-1.9-2.29-4.8-3.44-8.7-3.44-2.86,0-5.52.69-8,2.06-2.48,1.37-4.76,3.23-6.86,5.58v40.44h-9.65Z"/>
    <path class="cls-1" d="M398.5,248.28v-54.91h5.75c1.37,0,2.24.67,2.6,2l.76,5.96c2.39-2.64,5.05-4.77,8-6.4,2.94-1.63,6.35-2.44,10.22-2.44,3,0,5.65.5,7.94,1.49,2.29.99,4.21,2.4,5.75,4.23s2.7,4.02,3.5,6.59c.79,2.57,1.19,5.4,1.19,8.51v34.96h-9.65v-34.96c0-4.16-.95-7.38-2.85-9.68-1.9-2.29-4.8-3.44-8.7-3.44-2.86,0-5.52.69-8,2.06-2.48,1.37-4.76,3.23-6.86,5.58v40.44h-9.65Z"/>
    <path class="cls-1" d="M481,192.5c4.01,0,7.63.67,10.87,2,3.23,1.34,5.98,3.24,8.24,5.69,2.26,2.46,3.99,5.43,5.2,8.92,1.21,3.49,1.82,7.38,1.82,11.68s-.61,8.24-1.82,11.71c-1.21,3.47-2.95,6.43-5.2,8.89-2.26,2.46-5.01,4.34-8.24,5.66-3.24,1.32-6.86,1.98-10.87,1.98s-7.63-.66-10.87-1.98c-3.24-1.32-5.99-3.21-8.27-5.66-2.28-2.46-4.03-5.42-5.26-8.89-1.23-3.47-1.84-7.37-1.84-11.71s.62-8.19,1.84-11.68c1.23-3.49,2.98-6.46,5.26-8.92,2.28-2.46,5.03-4.36,8.27-5.69,3.23-1.34,6.86-2,10.87-2ZM481,241.5c5.42,0,9.47-1.82,12.14-5.45,2.67-3.63,4.01-8.7,4.01-15.21s-1.34-11.64-4.01-15.29c-2.67-3.65-6.72-5.47-12.14-5.47-2.75,0-5.13.47-7.16,1.41-2.02.94-3.71,2.3-5.07,4.06-1.36,1.77-2.37,3.95-3.04,6.53-.67,2.58-1,5.5-1,8.75s.33,6.16,1,8.73,1.68,4.73,3.04,6.48c1.35,1.75,3.04,3.1,5.07,4.04,2.02.94,4.41,1.41,7.16,1.41Z"/>
    <path class="cls-1" d="M510.71,193.37h7.91c.76,0,1.39.2,1.9.6.51.4.87.87,1.08,1.41l13.93,35.34c.51,1.3.9,2.6,1.19,3.9.29,1.3.56,2.58.81,3.85.29-1.26.6-2.55.92-3.85.33-1.3.74-2.6,1.25-3.9l14.09-35.34c.22-.58.57-1.06,1.06-1.44.49-.38,1.09-.57,1.82-.57h7.53l-22.39,54.91h-8.73l-22.39-54.91Z"/>
    <path class="cls-1" d="M613.49,248.28h-4.28c-.94,0-1.7-.14-2.28-.43-.58-.29-.96-.9-1.14-1.84l-1.08-5.09c-1.44,1.3-2.85,2.47-4.23,3.5-1.37,1.03-2.82,1.9-4.34,2.6-1.52.7-3.14,1.24-4.85,1.6-1.72.36-3.62.54-5.72.54s-4.13-.3-5.99-.9c-1.86-.6-3.48-1.5-4.85-2.69-1.37-1.2-2.47-2.71-3.28-4.54-.81-1.83-1.22-4-1.22-6.5,0-2.18.6-4.27,1.79-6.28,1.19-2.01,3.12-3.8,5.77-5.36,2.66-1.56,6.13-2.84,10.43-3.84,4.3-1,9.56-1.5,15.77-1.5v-4.31c0-4.29-.91-7.54-2.74-9.74-1.83-2.2-4.53-3.3-8.1-3.3-2.35,0-4.33.3-5.94.89s-3,1.27-4.17,2.01c-1.18.74-2.19,1.41-3.04,2-.85.6-1.69.9-2.52.9-.65,0-1.22-.17-1.71-.52-.49-.34-.88-.77-1.16-1.27l-1.74-3.09c3.04-2.93,6.31-5.11,9.81-6.56,3.5-1.44,7.39-2.17,11.65-2.17,3.07,0,5.8.51,8.19,1.52,2.38,1.01,4.39,2.42,6.02,4.23,1.63,1.81,2.85,3.99,3.69,6.56.83,2.57,1.25,5.38,1.25,8.46v35.13ZM588.44,242.37c1.7,0,3.25-.17,4.66-.51s2.74-.83,3.98-1.46c1.25-.63,2.44-1.4,3.58-2.3,1.14-.9,2.25-1.93,3.33-3.09v-11.33c-4.45,0-8.22.28-11.33.85s-5.64,1.3-7.59,2.21c-1.95.91-3.37,1.98-4.25,3.22-.89,1.24-1.33,2.62-1.33,4.14s.23,2.71.7,3.76c.47,1.05,1.1,1.92,1.9,2.59.79.67,1.73,1.16,2.82,1.47,1.08.31,2.26.46,3.52.46Z"/>
    <path class="cls-1" d="M644.76,249.15c-4.34,0-7.67-1.21-10-3.63-2.33-2.42-3.5-5.91-3.5-10.46v-33.61h-6.61c-.58,0-1.07-.17-1.46-.51-.4-.34-.6-.88-.6-1.6v-3.85l9-1.14,2.22-16.97c.07-.54.31-.98.7-1.33.4-.34.9-.52,1.52-.52h4.88v18.92h15.72v6.99h-15.72v32.96c0,2.31.56,4.03,1.68,5.15,1.12,1.12,2.57,1.68,4.34,1.68,1.01,0,1.89-.13,2.63-.41s1.38-.57,1.93-.9c.54-.32,1-.62,1.38-.89s.71-.41,1-.41c.51,0,.96.31,1.36.92l2.82,4.61c-1.66,1.55-3.67,2.77-6.02,3.66s-4.77,1.33-7.26,1.33Z"/>
    <path class="cls-1" d="M681.46,176.13c0,.94-.19,1.82-.57,2.63-.38.81-.89,1.54-1.52,2.17-.63.63-1.36,1.13-2.2,1.49s-1.72.54-2.66.54-1.82-.18-2.63-.54-1.54-.86-2.17-1.49c-.63-.63-1.13-1.35-1.49-2.17-.36-.81-.54-1.69-.54-2.63s.18-1.83.54-2.68c.36-.85.86-1.59,1.49-2.22.63-.63,1.36-1.13,2.17-1.49s1.69-.54,2.63-.54,1.82.18,2.66.54,1.56.86,2.2,1.49c.63.63,1.14,1.37,1.52,2.22.38.85.57,1.74.57,2.68ZM679.29,193.37v54.91h-9.65v-54.91h9.65Z"/>
    <path class="cls-1" d="M718.54,192.5c4.01,0,7.63.67,10.87,2,3.23,1.34,5.98,3.24,8.24,5.69,2.26,2.46,3.99,5.43,5.2,8.92,1.21,3.49,1.82,7.38,1.82,11.68s-.61,8.24-1.82,11.71c-1.21,3.47-2.95,6.43-5.2,8.89-2.26,2.46-5.01,4.34-8.24,5.66-3.24,1.32-6.86,1.98-10.87,1.98s-7.63-.66-10.87-1.98c-3.24-1.32-5.99-3.21-8.27-5.66-2.28-2.46-4.03-5.42-5.26-8.89-1.23-3.47-1.84-7.37-1.84-11.71s.62-8.19,1.84-11.68c1.23-3.49,2.98-6.46,5.26-8.92,2.28-2.46,5.03-4.36,8.27-5.69,3.23-1.34,6.86-2,10.87-2ZM718.54,241.5c5.42,0,9.47-1.82,12.14-5.45,2.67-3.63,4.01-8.7,4.01-15.21s-1.34-11.64-4.01-15.29c-2.67-3.65-6.72-5.47-12.14-5.47-2.75,0-5.13.47-7.16,1.41-2.02.94-3.71,2.3-5.07,4.06-1.36,1.77-2.37,3.95-3.04,6.53s-1,5.5-1,8.75.33,6.16,1,8.73,1.68,4.73,3.04,6.48c1.35,1.75,3.04,3.1,5.07,4.04,2.02.94,4.41,1.41,7.16,1.41Z"/>
    <path class="cls-1" d="M756.59,248.28v-54.91h5.75c1.37,0,2.24.67,2.6,2l.76,5.96c2.39-2.64,5.05-4.77,8-6.4,2.94-1.63,6.35-2.44,10.22-2.44,3,0,5.65.5,7.94,1.49,2.29.99,4.21,2.4,5.75,4.23s2.7,4.02,3.5,6.59c.79,2.57,1.19,5.4,1.19,8.51v34.96h-9.65v-34.96c0-4.16-.95-7.38-2.85-9.68-1.9-2.29-4.8-3.44-8.7-3.44-2.86,0-5.52.69-8,2.06-2.48,1.37-4.76,3.23-6.86,5.58v40.44h-9.65Z"/>
  </g>
</svg>