<svg width="32" height="32" viewBox="0 0 32 32" fill="none" xmlns="http://www.w3.org/2000/svg">
<path fill-rule="evenodd" clip-rule="evenodd" d="M16 29.3334C23.3637 29.3334 29.3333 23.3638 29.3333 16C29.3333 8.63622 23.3637 2.66669 16 2.66669C8.6362 2.66669 2.66667 8.63622 2.66667 16C2.66667 23.3638 8.6362 29.3334 16 29.3334ZM13.2929 11.2929C13.6835 10.9024 14.3165 10.9024 14.7071 11.2929L18.7071 15.293C19.0976 15.6835 19.0976 16.3166 18.7071 16.7071L14.7071 20.7071C14.3165 21.0976 13.6835 21.0976 13.2929 20.7071C12.9024 20.3166 12.9024 19.6835 13.2929 19.293L16.5857 16L13.2929 12.7071C12.9024 12.3166 12.9024 11.6834 13.2929 11.2929Z" fill="white"/>
</svg>
