<svg width="32" height="32" viewBox="0 0 32 32" fill="none" xmlns="http://www.w3.org/2000/svg">
<path fill-rule="evenodd" clip-rule="evenodd" d="M16 29.3334C23.3637 29.3334 29.3333 23.3638 29.3333 16C29.3333 8.63622 23.3637 2.66669 16 2.66669C8.6362 2.66669 2.66666 8.63622 2.66666 16C2.66666 23.3638 8.6362 29.3334 16 29.3334ZM18.7071 11.2929C19.0976 11.6834 19.0976 12.3166 18.7071 12.7071L15.4143 16L18.7071 19.293C19.0976 19.6835 19.0976 20.3166 18.7071 20.7071C18.3165 21.0976 17.6835 21.0976 17.2929 20.7071L13.2929 16.7071C12.9024 16.3166 12.9024 15.6835 13.2929 15.293L17.2929 11.2929C17.6835 10.9024 18.3165 10.9024 18.7071 11.2929Z" fill="white"/>
</svg>
