<svg width="32" height="33" viewBox="0 0 32 33" fill="none" xmlns="http://www.w3.org/2000/svg">
<path d="M23.8493 27.2792C23.4254 24.0653 21.8508 21.8333 16 21.8333C10.1491 21.8333 8.57439 24.0653 8.15056 27.2791M23.8493 27.2792C27.1733 24.8545 29.3333 20.9295 29.3333 16.5C29.3333 9.1362 23.3637 3.16667 16 3.16667C8.63616 3.16667 2.66663 9.1362 2.66663 16.5C2.66663 20.9295 4.82652 24.8544 8.15056 27.2791M23.8493 27.2792C21.6472 28.8855 18.9342 29.8333 16 29.8333C13.0656 29.8333 10.3526 28.8855 8.15056 27.2791M20 13.8333C20 16.0425 18.2092 17.8333 16 17.8333C13.7908 17.8333 12 16.0425 12 13.8333C12 11.6242 13.7908 9.83333 16 9.83333C18.2092 9.83333 20 11.6242 20 13.8333Z" stroke="#1C274C" stroke-width="1.5" stroke-linecap="round"/>
</svg>
